<?xml version="1.0" encoding="UTF-8" standalone="no"?>
<!-- Created with Inkscape (http://www.inkscape.org/) -->

<svg
   width="210mm"
   height="297mm"
   viewBox="0 0 210 297"
   version="1.1"
   id="svg5"
   sodipodi:docname="arduino patryk.svg"
   inkscape:version="1.1 (c68e22c387, 2021-05-23)"
   xmlns:inkscape="http://www.inkscape.org/namespaces/inkscape"
   xmlns:sodipodi="http://sodipodi.sourceforge.net/DTD/sodipodi-0.dtd"
   xmlns="http://www.w3.org/2000/svg"
   xmlns:svg="http://www.w3.org/2000/svg">
  <sodipodi:namedview
     id="namedview7"
     pagecolor="#ffffff"
     bordercolor="#999999"
     borderopacity="1"
     inkscape:pageshadow="0"
     inkscape:pageopacity="0"
     inkscape:pagecheckerboard="0"
     inkscape:document-units="mm"
     showgrid="false"
     inkscape:zoom="1.2502337"
     inkscape:cx="576.29226"
     inkscape:cy="869.83738"
     inkscape:window-width="1920"
     inkscape:window-height="1001"
     inkscape:window-x="-9"
     inkscape:window-y="-9"
     inkscape:window-maximized="1"
     inkscape:current-layer="layer1"
     inkscape:snap-global="true"
     showguides="true"
     inkscape:guide-bbox="true" />
  <defs
     id="defs2" />
  <g
     inkscape:label="Layer 1"
     inkscape:groupmode="layer"
     id="layer1">
    <g
       id="panel1087">
      <path
         style="fill:none;stroke:#000000;stroke-width:1"
         d="M 28.4 97.9 L 35.2143 97.9 L 35.2143 94.8 L 41.4143 94.8 L 41.4143 97.9 L 48.1286 97.9 L 48.1286 94.8 L 54.3286 94.8 L 54.3286 97.9 L 61.0429 97.9 L 61.0429 94.8 L 67.2429 94.8 L 67.2429 97.9 L 73.9571 97.9 L 73.9571 94.8 L 80.1571 94.8 L 80.1571 97.9 L 86.8714 97.9 L 86.8714 94.8 L 93.0714 94.8 L 93.0714 97.9 L 99.7857 97.9 L 99.7857 94.8 L 105.986 94.8 L 105.986 97.9 L 112.8 97.9"
         id="path587" />
      <path
         style="fill:none;stroke:#000000;stroke-width:1"
         d="M 112.8 97.9 L 112.8 105.1 L 109.7 105.1 L 109.7 110.9 L 112.8 110.9 L 112.8 118.1"
         id="path589" />
      <path
         style="fill:none;stroke:#000000;stroke-width:1"
         d="M 112.8,118.1 H 28.4"
         id="path591"
         sodipodi:nodetypes="cc" />
      <path
         style="fill:none;stroke:#000000;stroke-width:1"
         d="M 28.4 118.1 L 28.4 110.9 L 31.5 110.9 L 31.5 105.1 L 28.4 105.1 L 28.4 97.9"
         id="path593" />
    </g>
    <g
       id="panel3555">
      <path
         style="fill:none;stroke:#000000;stroke-width:1"
         d="M 4.1 31.5 L 11.1 31.5 L 11.1 28.4 L 17.3 28.4 L 17.3 31.5 L 24.3 31.5"
         id="path596" />
      <path
         style="fill:none;stroke:#000000;stroke-width:1"
         d="M 24.3 31.5 L 24.3 36.58 L 27.4 36.58 L 27.4 42.78 L 24.3 42.78 L 24.3 50.86 L 27.4 50.86 L 27.4 57.06 L 24.3 57.06 L 24.3 65.14 L 27.4 65.14 L 27.4 71.34 L 24.3 71.34 L 24.3 79.42 L 27.4 79.42 L 27.4 85.62 L 24.3 85.62 L 24.3 90.7"
         id="path598" />
      <path
         style="fill:none;stroke:#000000;stroke-width:1"
         d="M 24.3 90.7 L 17.3 90.7 L 17.3 93.8 L 11.1 93.8 L 11.1 90.7 L 4.1 90.7"
         id="path600" />
      <path
         style="fill:none;stroke:#000000;stroke-width:1"
         d="M 4.1,90.7 V 85.62 H 1 v -6.2 H 4.1 V 42.78 H 1 v -6.2 H 4.1 V 31.5"
         id="path602"
         sodipodi:nodetypes="cccccccccc" />
    </g>
    <g
       id="panel8147">
      <path
         style="fill:none;stroke:#000000;stroke-width:1"
         d="M 28.4 28.4 L 35.4143 28.4 L 35.4143 31.5 L 41.2143 31.5 L 41.2143 28.4 L 48.3286 28.4 L 48.3286 31.5 L 54.1286 31.5 L 54.1286 28.4 L 61.2429 28.4 L 61.2429 31.5 L 67.0429 31.5 L 67.0429 28.4 L 74.1571 28.4 L 74.1571 31.5 L 79.9571 31.5 L 79.9571 28.4 L 87.0714 28.4 L 87.0714 31.5 L 92.8714 31.5 L 92.8714 28.4 L 99.9857 28.4 L 99.9857 31.5 L 105.786 31.5 L 105.786 28.4 L 112.8 28.4"
         id="path605" />
      <path
         style="fill:none;stroke:#000000;stroke-width:1"
         d="M 112.8 28.4 L 112.8 36.78 L 109.7 36.78 L 109.7 42.58 L 112.8 42.58 L 112.8 51.06 L 109.7 51.06 L 109.7 56.86 L 112.8 56.86 L 112.8 65.34 L 109.7 65.34 L 109.7 71.14 L 112.8 71.14 L 112.8 79.62 L 109.7 79.62 L 109.7 85.42 L 112.8 85.42 L 112.8 93.8"
         id="path607" />
      <path
         style="fill:none;stroke:#000000;stroke-width:1"
         d="M 112.8 93.8 L 105.786 93.8 L 105.786 90.7 L 99.9857 90.7 L 99.9857 93.8 L 92.8714 93.8 L 92.8714 90.7 L 87.0714 90.7 L 87.0714 93.8 L 79.9571 93.8 L 79.9571 90.7 L 74.1571 90.7 L 74.1571 93.8 L 67.0429 93.8 L 67.0429 90.7 L 61.2429 90.7 L 61.2429 93.8 L 54.1286 93.8 L 54.1286 90.7 L 48.3286 90.7 L 48.3286 93.8 L 41.2143 93.8 L 41.2143 90.7 L 35.4143 90.7 L 35.4143 93.8 L 28.4 93.8"
         id="path609" />
      <path
         style="fill:none;stroke:#000000;stroke-width:1"
         d="M 28.4 93.8 L 28.4 85.42 L 31.5 85.42 L 31.5 79.62 L 28.4 79.62 L 28.4 71.14 L 31.5 71.14 L 31.5 65.34 L 28.4 65.34 L 28.4 56.86 L 31.5 56.86 L 31.5 51.06 L 28.4 51.06 L 28.4 42.58 L 31.5 42.58 L 31.5 36.78 L 28.4 36.78 L 28.4 28.4"
         id="path611" />
    </g>
    <g
       id="panel5256">
      <path
         style="fill:none;stroke:#000000;stroke-width:1"
         d="M 116.9 31.5 L 123.9 31.5 L 123.9 28.4 L 130.1 28.4 L 130.1 31.5 L 137.1 31.5"
         id="path614" />
      <path
         style="fill:none;stroke:#000000;stroke-width:1"
         d="m 137.1,31.5 v 5.08 h 3.1 v 6.2 h -3.1 v 36.64 h 3.1 v 6.2 h -3.1 v 5.08"
         id="path616"
         sodipodi:nodetypes="cccccccccc" />
      <path
         style="fill:none;stroke:#000000;stroke-width:1"
         d="M 137.1 90.7 L 130.1 90.7 L 130.1 93.8 L 123.9 93.8 L 123.9 90.7 L 116.9 90.7"
         id="path618" />
      <path
         style="fill:none;stroke:#000000;stroke-width:1"
         d="M 116.9 90.7 L 116.9 85.62 L 113.8 85.62 L 113.8 79.42 L 116.9 79.42 L 116.9 71.34 L 113.8 71.34 L 113.8 65.14 L 116.9 65.14 L 116.9 57.06 L 113.8 57.06 L 113.8 50.86 L 116.9 50.86 L 116.9 42.78 L 113.8 42.78 L 113.8 36.58 L 116.9 36.58 L 116.9 31.5"
         id="path620" />
    </g>
    <g
       id="panel2444"
       transform="translate(-66.035586,102.16585)">
      <path
         style="fill:none;stroke:#000000;stroke-width:1"
         d="m 138.55417,28.4 h 89.1625"
         id="path623"
         sodipodi:nodetypes="cc" />
      <path
         style="fill:none;stroke:#000000;stroke-width:1"
         d="m 227.71667,28.4 v 8.38 H 222.5 v 5.8 h 5.21667 v 8.48 H 222.5 v 20.08 h 5.21667 v 8.48 H 222.5 v 5.8 h 5.21667 v 8.38"
         id="path625"
         sodipodi:nodetypes="cccccccccccccc" />
      <path
         style="fill:none;stroke:#000000;stroke-width:1"
         d="m 227.71667,93.8 h -89.1625"
         id="path627"
         sodipodi:nodetypes="cc" />
      <path
         style="fill:none;stroke:#000000;stroke-width:1"
         d="M 138.55417,93.8 V 85.42 H 144.3 v -5.8 h -5.74583 V 71.14 H 144.3 V 51.06 h -5.74583 V 42.58 H 144.3 v -5.8 h -5.74583 V 28.4"
         id="path629"
         sodipodi:nodetypes="cccccccccccccc" />
    </g>
    <g
       id="panel9804">
      <path
         style="fill:none;stroke:#000000;stroke-width:1"
         d="m 28.4,4.1 h 84.4"
         id="path632"
         sodipodi:nodetypes="cc" />
      <path
         style="fill:none;stroke:#000000;stroke-width:1"
         d="M 112.8 4.1 L 112.8 11.3 L 109.7 11.3 L 109.7 17.1 L 112.8 17.1 L 112.8 24.3"
         id="path634" />
      <path
         style="fill:none;stroke:#000000;stroke-width:1"
         d="M 112.8 24.3 L 105.986 24.3 L 105.986 27.4 L 99.7857 27.4 L 99.7857 24.3 L 93.0714 24.3 L 93.0714 27.4 L 86.8714 27.4 L 86.8714 24.3 L 80.1571 24.3 L 80.1571 27.4 L 73.9571 27.4 L 73.9571 24.3 L 67.2429 24.3 L 67.2429 27.4 L 61.0429 27.4 L 61.0429 24.3 L 54.3286 24.3 L 54.3286 27.4 L 48.1286 27.4 L 48.1286 24.3 L 41.4143 24.3 L 41.4143 27.4 L 35.2143 27.4 L 35.2143 24.3 L 28.4 24.3"
         id="path636" />
      <path
         style="fill:none;stroke:#000000;stroke-width:1"
         d="M 28.4 24.3 L 28.4 17.1 L 31.5 17.1 L 31.5 11.3 L 28.4 11.3 L 28.4 4.1"
         id="path638" />
    </g>
    <rect
       style="fill:none;stroke-width:0.264583"
       id="rect2382"
       width="7.9056826"
       height="7.3900948"
       x="8.5931339"
       y="39.012825"
       ry="3.6950474" />
    <rect
       style="fill:none;stroke:#000000;stroke-width:0.309499"
       id="rect2406"
       width="11.690501"
       height="13.690501"
       x="8.7865038"
       y="43.597179" />
    <rect
       style="fill:none;stroke:#000000;stroke-width:0.321722"
       id="rect2408"
       width="12.678278"
       height="10.678278"
       x="7.798727"
       y="73.799782" />
    <rect
       style="fill:none;stroke:#000000;stroke-width:0.264583"
       id="rect3324"
       width="70.260201"
       height="12.697625"
       x="82.111313"
       y="138.40451" />
    <rect
       style="fill:none;stroke:#000000;stroke-width:0.264583"
       id="rect3326"
       width="66.239281"
       height="10.792982"
       x="84.862457"
       y="179.56549" />
    <g
       aria-label="Patryk"
       id="text5148"
       style="font-size:10.5833px;line-height:1.25;fill:#ff0000;stroke-width:0.264583"
       transform="translate(-91.846162,104.54379)">
      <path
         d="m 189.33585,54.944556 q 0,0.511596 -0.18086,0.950844 -0.1757,0.43408 -0.4961,0.754473 -0.3979,0.397908 -0.94051,0.599445 -0.5426,0.19637 -1.36942,0.19637 h -1.02319 v 2.868033 h -1.02319 v -7.694597 h 2.08772 q 0.69247,0 1.17306,0.118856 0.48059,0.113688 0.85265,0.361734 0.43925,0.294554 0.67696,0.733803 0.24288,0.439248 0.24288,1.111039 z m -1.06453,0.02584 q 0,-0.397908 -0.13952,-0.692462 -0.13953,-0.294555 -0.42375,-0.48059 -0.24805,-0.160196 -0.56844,-0.227375 -0.31522,-0.07235 -0.80098,-0.07235 h -1.01286 v 3.074738 h 0.863 q 0.62011,0 1.00768,-0.10852 0.38758,-0.113688 0.63046,-0.356566 0.24287,-0.248047 0.34106,-0.521931 0.10335,-0.273884 0.10335,-0.614947 z"
         id="path6194"
         style="fill:#ff0000" />
      <path
         d="m 194.83421,60.313721 h -0.96635 v -0.614948 q -0.12919,0.08785 -0.3514,0.248046 -0.21704,0.155029 -0.42374,0.248046 -0.24288,0.118856 -0.55811,0.19637 -0.31522,0.08268 -0.73897,0.08268 -0.78031,0 -1.32291,-0.516763 -0.5426,-0.516762 -0.5426,-1.317744 0,-0.656289 0.27905,-1.059364 0.28422,-0.408242 0.80615,-0.640786 0.5271,-0.232543 1.26607,-0.315225 0.73897,-0.08268 1.58646,-0.124023 v -0.149861 q 0,-0.330728 -0.11885,-0.547768 -0.11369,-0.217041 -0.33073,-0.341064 -0.20671,-0.118855 -0.4961,-0.160196 -0.28938,-0.04134 -0.60461,-0.04134 -0.3824,0 -0.85266,0.103352 -0.47025,0.09819 -0.97151,0.289387 h -0.0517 v -0.987016 q 0.28422,-0.07752 0.82166,-0.170532 0.53743,-0.09302 1.05936,-0.09302 0.60978,0 1.05936,0.103352 0.45475,0.09819 0.78548,0.341064 0.32556,0.23771 0.4961,0.614947 0.17053,0.377237 0.17053,0.935341 z m -0.96635,-1.421098 v -1.607132 q -0.44442,0.02584 -1.04903,0.07751 -0.59944,0.05168 -0.95084,0.149861 -0.41858,0.118855 -0.67696,0.372069 -0.25838,0.248046 -0.25838,0.687294 0,0.496093 0.29972,0.749306 0.29972,0.248046 0.91467,0.248046 0.5116,0 0.93534,-0.196369 0.42375,-0.201538 0.78548,-0.48059 z"
         id="path6196"
         style="fill:#ff0000" />
      <path
         d="m 199.70211,60.262044 q -0.27388,0.07235 -0.59944,0.118856 -0.3204,0.04651 -0.57361,0.04651 -0.88366,0 -1.34358,-0.475421 -0.45992,-0.475422 -0.45992,-1.52445 v -3.06957 h -0.65629 v -0.816485 h 0.65629 v -1.658809 h 0.97151 v 1.658809 h 2.00504 v 0.816485 h -2.00504 v 2.630322 q 0,0.454751 0.0207,0.713132 0.0207,0.253214 0.1447,0.475422 0.11368,0.206705 0.31005,0.30489 0.20154,0.09302 0.60978,0.09302 0.23771,0 0.4961,-0.06718 0.25838,-0.07235 0.37206,-0.118855 h 0.0517 z"
         id="path6198"
         style="fill:#ff0000" />
      <path
         d="m 204.477,55.600845 h -0.0517 q -0.21704,-0.05168 -0.42374,-0.07235 -0.20154,-0.02584 -0.48059,-0.02584 -0.44959,0 -0.86816,0.201538 -0.41858,0.196369 -0.80615,0.511595 v 4.097928 h -0.97152 v -5.772239 h 0.97152 v 0.852658 q 0.57877,-0.465086 1.01802,-0.656289 0.44441,-0.196369 0.90433,-0.196369 0.25322,0 0.3669,0.0155 0.11369,0.01034 0.34107,0.04651 z"
         id="path6200"
         style="fill:#ff0000" />
      <path
         d="m 210.3836,54.541482 -3.3693,7.901301 h -1.03869 l 1.07487,-2.408114 -2.2996,-5.493187 h 1.0542 l 1.77249,4.278795 1.788,-4.278795 z"
         id="path6202"
         style="fill:#ff0000" />
      <path
         d="m 216.89481,60.313721 h -1.28157 l -2.3151,-2.52697 -0.63045,0.599445 v 1.927525 h -0.97152 v -8.040828 h 0.97152 v 5.157292 l 2.80602,-2.888703 h 1.22473 l -2.682,2.666495 z"
         id="path6204"
         style="fill:#ff0000" />
    </g>
  </g>
</svg>
